<?xml version="1.0" encoding="UTF-8"?>
<!DOCTYPE svg PUBLIC "-//W3C//DTD SVG 1.1//EN" "http://www.w3.org/Graphics/SVG/1.1/DTD/svg11.dtd">
<!-- Creator: CorelDRAW 2019 -->
<svg xmlns="http://www.w3.org/2000/svg" xml:space="preserve" width="112.499mm" height="136.883mm" version="1.1" style="shape-rendering:geometricPrecision; text-rendering:geometricPrecision; image-rendering:optimizeQuality; fill-rule:evenodd; clip-rule:evenodd"
viewBox="0 0 9161.19 11146.84"
 xmlns:xlink="http://www.w3.org/1999/xlink">
 <defs>
  <style type="text/css">
   <![CDATA[
    .fil0 {fill:#305DA8}
   ]]>
  </style>
 </defs>
 <g id="Layer_x0020_1">
  <metadata id="CorelCorpID_0Corel-Layer"/>
  <path class="fil0" d="M7838.83 11138.32c424.21,0 898.08,-17.06 1322.36,-17.06 0,-427.39 -174.48,-1167.46 -312.39,-1581 -27.65,-82.92 -52.17,-155.52 -80.92,-234.65 -134.9,-371.25 -319.16,-745.05 -513.53,-1072.87 -124.45,-209.89 -446.16,-662.37 -605.2,-819.16l-477.43 -469.32c-230.99,-205.7 -660.37,-510.39 -939.17,-647.31 -41.44,-20.35 -63.73,-36.39 -105.15,-56.91 -159.09,-78.75 -382.76,-183.44 -549.77,-243.48 -38.81,-13.95 -81.09,-28.72 -118.44,-43.62 -145.07,-57.83 -322.49,-106.91 -477.67,-153.52 -373.28,-112.12 -760.2,-295.74 -1103.3,-483.19l-483.25 -301.46c-136.52,-90.35 -500.16,-367.44 -629.19,-488.17l-400.78 -383.91c-28.3,-29.41 -52.17,-52.05 -81.09,-80.96 -98.18,-98.14 -237.92,-262.36 -333.09,-374.84l-386.18 -492.33c-121.94,-162.22 -271.25,-392.35 -380.62,-566.12 -120.76,-191.85 -182.96,-312.33 -288.8,-495.86 -96.38,-167.11 -185.86,-356.48 -272.52,-529.21l-197.4 -433.75c-30.98,-74.9 -63.88,-150.95 -93.8,-230.3l-89.36 -226.21c-57.83,-167.05 -108.16,-285.15 -162.27,-468.87 -12.72,-43.18 -24.62,-81.08 -38.27,-123.79l-41.58 -120.46 0 5995.27 0 5151.57c1307.93,0 2615.86,0 3923.78,0 653.97,0 1307.93,0 1961.89,0 660.85,0 1295.34,-8.53 1953.15,-8.53z"/>
 </g>
</svg>
