<?xml version="1.0" encoding="UTF-8"?>
<!DOCTYPE svg PUBLIC "-//W3C//DTD SVG 1.1//EN" "http://www.w3.org/Graphics/SVG/1.1/DTD/svg11.dtd">
<!-- Creator: CorelDRAW 2019 -->
<svg xmlns="http://www.w3.org/2000/svg" xml:space="preserve" width="19.5816mm" height="19.5867mm" version="1.1" style="shape-rendering:geometricPrecision; text-rendering:geometricPrecision; image-rendering:optimizeQuality; fill-rule:evenodd; clip-rule:evenodd"
viewBox="0 0 644.32 644.49"
 xmlns:xlink="http://www.w3.org/1999/xlink">
 <defs>
  <style type="text/css">
   <![CDATA[
    .fil0 {fill:#244B9A}
    .fil1 {fill:white}
   ]]>
  </style>
 </defs>
 <g id="Layer_x0020_1">
  <metadata id="CorelCorpID_0Corel-Layer"/>
  <g id="_780902896">
   <path class="fil0" d="M-0 321.97c0,103.89 55.65,208.56 137.26,263.15 8.14,5.44 15.69,11.19 24.44,15.81 93.71,49.48 189.86,59.47 290.17,16.15 18.74,-8.1 34.57,-17.76 50.23,-28.15 8.12,-5.39 15.69,-11.13 23.34,-16.92 7.76,-5.86 13.46,-12.49 20.61,-19.64 43.31,-43.31 70.98,-85.35 87.42,-147.74 24.81,-94.19 6.64,-191.52 -49.97,-269.98 -19.2,-26.61 -15.05,-20.65 -37.45,-43.06 -33.27,-33.29 -55.03,-44.87 -93.39,-63.38 -127.43,-61.5 -290.47,-18.01 -376.88,87.79 -32.44,39.71 -55.92,82.91 -67.18,134.08 -4.27,19.41 -8.59,49.2 -8.59,71.91z"/>
   <path class="fil1" d="M305.07 112.25l-4.24 -0.01 -2.12 2.14c-7.4,1.7 -11.59,4.92 -16.95,8.49l-2.12 2.09 -8.46 8.47 -2.12 2.12c-3.57,5.36 -6.76,9.57 -8.46,16.95l-2.14 2.12 0.01 6.36 -2.12 2.12 0.02 59.32 -2.15 2.15c-23.22,-0.02 -52.34,-2.48 -72.03,2.09l-2.12 2.12 -2.12 0 -2.12 2.12 -6.35 4.27 -2.11 2.08 -4.24 6.36 -2.11 2.12 0 2.12 -2.14 2.12c-1.47,6.33 -2.08,6.36 -2.15,14.83l0.01 177.96 0.03 8.47 2.12 2.12c1.29,5.51 1.95,6.25 4.22,10.59l2.13 2.12 8.47 8.46 2.12 2.12c4.49,2.35 6.06,3.61 12.71,4.24l2.12 2.1c45.19,0.15 90.4,0.02 135.59,0.03 44.79,0 94.06,1.35 135.59,-2.13l2.12 -2.12c32.81,-17.5 25.42,-47.59 25.42,-95.33 0,-40.96 0.03,-81.92 -0.01,-122.88l-2.1 -2.12 -0.01 -6.36 -2.12 -2.12 0 -2.12 -2.1 -2.12 -2.11 -4.24 -2.14 -2.12 -6.35 -6.33 -2.12 -2.12c-15.85,-8.38 -17.36,-6.38 -40.25,-6.36 -16.24,0.01 -32.49,0 -48.73,0 -31.78,0 -63.56,-0.01 -95.33,0l-2.13 -2.13c0.03,-21.15 -3.31,-50.49 4.25,-65.68l2.12 -2.12c4.57,-6.88 9.68,-12.65 19.07,-14.83l2.12 -2.15c12.76,0.06 17.33,-0.27 27.54,2.14l2.12 2.14 4.24 2.12 2.12 2.11 4.25 4.25 2.14 2.12c3.32,4.97 2.55,2.24 4.22,8.47l2.09 2.12 0.56 6.35c2.6,5.5 1.58,15.22 1.58,23.29l22.84 -0.43c0.54,-0.11 1.16,-0.34 1.62,-0.46l2.93 -1.21 -1.24 -3.15c-0.14,-0.69 -1.91,-5.83 0.86,-11.68l0 -2.12 -1.6 -6.35 0.01 -8.48 -2.1 -2.12 -0.02 -4.23 -2.12 -2.12c-1.29,-5.6 -1.92,-6.21 -4.24,-10.6l-2.11 -2.12c-5.39,-7.98 -12.44,-14.31 -21.18,-19.05l-2.12 -2.13 -2.12 0 -2.12 -2.13c-4.85,-1.12 -4.86,-1.64 -10.6,-2.11l-2.12 -2.12 -29.66 -0 -2.12 2.13z"/>
   <path class="fil0" d="M317.78 292.25c-12.15,0.37 -18.36,5.32 -23.29,12.78l-2.13 2.12c-2.63,4.97 -3.65,5.51 -4.25,12.71 0.04,10.08 0.06,4.02 -2.11,6.35l0 2.12 1.94 4.24 0.17 6.35 2.12 2.12 0 2.12 2.12 2.12c13.62,20.36 13.08,2.77 12.7,40.27 -0.23,22.92 0.09,29.59 23.33,29.66l2.12 -2.11 4.24 -2.07 2.13 -2.19c1.59,-2.82 1.35,-2.28 2.1,-6.35l2.15 -2.12c0.02,-7.77 0.06,-15.56 -0.01,-23.33 -0.06,-6.46 -1.28,-15.77 2.1,-21.15l2.12 -2.12 4.25 -4.25 2.1 -2.12c2.34,-4.38 2.95,-4.99 4.25,-10.6l2.13 -2.12c-0.06,-22.04 -3.35,-29.22 -16.97,-38.16l-2.12 -2.1 -2.12 0 -2.12 -2.12 -14.83 -2.12 -2.12 2.06z"/>
  </g>
 </g>
</svg>
