<?xml version="1.0" encoding="UTF-8"?>
<!DOCTYPE svg PUBLIC "-//W3C//DTD SVG 1.1//EN" "http://www.w3.org/Graphics/SVG/1.1/DTD/svg11.dtd">
<!-- Creator: CorelDRAW 2019 -->
<svg xmlns="http://www.w3.org/2000/svg" xml:space="preserve" width="45.2837mm" height="37.6626mm" version="1.1" style="shape-rendering:geometricPrecision; text-rendering:geometricPrecision; image-rendering:optimizeQuality; fill-rule:evenodd; clip-rule:evenodd"
viewBox="0 0 671.22 558.26"
 xmlns:xlink="http://www.w3.org/1999/xlink"
 data-name="Layer 1">
 <defs>
  <style type="text/css">
   <![CDATA[
    .fil2 {fill:#38D39F}
    .fil4 {fill:#3A3768}
    .fil3 {fill:#444053}
    .fil9 {fill:#5F5570}
    .fil1 {fill:#89BD29}
    .fil8 {fill:#8E6F7F}
    .fil14 {fill:#A8A8A8}
    .fil11 {fill:#BC8487}
    .fil5 {fill:#E6E8EC}
    .fil10 {fill:#EAEAF2}
    .fil12 {fill:#FFC4D0}
    .fil13 {fill:#FFD037}
    .fil6 {fill:black;fill-opacity:0.101961}
    .fil0 {fill:#89BD29;fill-opacity:0.101961}
    .fil15 {fill:black;fill-opacity:0.200000}
    .fil7 {fill:url(#id1)}
   ]]>
  </style>
   <clipPath id="id0">
    <rect x="349.36" y="368.87" width="10.07" height="11.54"/>
   </clipPath>
  <linearGradient id="id1" gradientUnits="userSpaceOnUse" x1="265.97" y1="404.64" x2="397.93" y2="404.64">
   <stop offset="0" style="stop-opacity:0.25098; stop-color:gray"/>
   <stop offset="0.541176" style="stop-opacity:0.121569; stop-color:gray"/>
   <stop offset="1" style="stop-opacity:0.101961; stop-color:gray"/>
  </linearGradient>
 </defs>
 <g id="PowerClip_x0020_Contents">
  <metadata id="CorelCorpID_0Corel-Layer"/>
  <g id="_856231712">
   <path class="fil0" d="M389.99 74.07c-43.03,-1.5 -84.01,-15.39 -123.15,-30.58 -39.13,-15.2 -77.9,-32.04 -119.9,-40.09 -27.01,-5.18 -57.91,-5.91 -79.67,8.57 -20.95,13.96 -27.72,38 -31.36,60.32 -2.74,16.79 -4.35,34.47 3.15,50.19 5.21,10.92 14.45,20.09 20.85,30.55 22.25,36.38 6.52,81.25 -17.59,116.77 -11.3,16.67 -24.43,32.58 -33.16,50.3 -8.73,17.73 -12.77,38.06 -5.13,56.16 7.57,17.95 25.6,31.41 45.15,40.88 39.69,19.25 86.43,24.75 132.05,27.87 100.95,6.91 202.43,3.92 303.64,0.92 37.46,-1.11 75.08,-2.23 111.93,-8.02 20.47,-3.22 41.59,-8.32 56.45,-20.64 18.86,-15.64 23.53,-42.13 10.89,-61.75 -21.2,-32.9 -79.79,-41.08 -94.62,-76.39 -8.15,-19.44 0.22,-41.09 12.07,-59.12 25.43,-38.67 68.04,-72.6 70.28,-116.8 1.54,-30.36 -18.94,-60.76 -50.62,-75.13 -33.2,-15.05 -79.24,-13.17 -103.72,11.76 -25.23,25.66 -69.55,35.54 -107.55,34.22z"/>
   <path class="fil0" d="M523.57 519.26c0,-15.1 -90.48,-27.34 -202.1,-27.34 -111.62,0 -202.1,12.24 -202.1,27.34 0,15.1 90.48,27.34 202.1,27.34 111.62,0 202.1,-12.24 202.1,-27.34z"/>
   <path class="fil1" d="M221.41 437.87c0,0 13.96,-2.23 22.34,7.63 0,0 -6.14,4.84 -19.36,-1.86l-2.98 -5.77z"/>
   <path class="fil1" d="M219.92 437.65c0,0 -8.91,11.02 -4.54,23.17 0,0 7.26,-2.91 8.05,-17.71l-3.51 -5.47z"/>
   <path class="fil1" d="M211.95 419.62c0,0 5.59,-10.24 27.92,4.1 0,0 -2.98,6.89 -12.85,6.33 -9.87,-0.56 -12.51,-5.03 -15.08,-10.42z"/>
   <path class="fil1" d="M210.48 418.89c0,0 -11.59,-1.33 -12.71,25.2 0,0 7.35,1.53 12.57,-6.87 5.22,-8.4 3.06,-13.09 0.15,-18.33z"/>
   <path class="fil1" d="M203.72 397.73c0,0 6.52,-18.06 30.17,-5.22 0,0 -5.4,16.57 -27.74,11.36l-2.42 -6.14z"/>
   <path class="fil1" d="M196.46 370.73c0,0 12.29,-18.24 34.08,-1.33 0,0 -7.63,17.13 -32.21,7.82l-1.86 -6.49z"/>
   <path class="fil1" d="M193.85 345.04c0,0 14.33,-16.76 35.9,0 0,0 -13.6,14.71 -35.9,4.28l0 -4.28z"/>
   <path class="fil1" d="M191.62 320.09c0,0 14.52,-17.51 35.19,-0.93 0,0 -16.39,15.45 -35.19,5.03l0 -4.1z"/>
   <path class="fil1" d="M192.92 297.93c0,0 15.29,-22.53 34.63,-7.26 0,0 -16.39,19.37 -34.63,11.54l0 -4.28z"/>
   <path class="fil1" d="M196.46 272.06c0,0 16.2,-22.34 35.01,-5.21 0,0 -19.18,19.36 -35.01,9.31l0 -4.1z"/>
   <path class="fil1" d="M201.87 248.92c0,0 19.17,-20.99 35.9,-12.63 0,0 -19.99,22.29 -36.74,18.2l0.84 -5.56z"/>
   <path class="fil1" d="M208.56 227c0,0 22.16,-25.7 35.01,-17.13 0,0 -16.3,19.95 -36.57,21.97l1.56 -4.84z"/>
   <path class="fil1" d="M218.23 201.57c0,0 19.37,-21 33.52,-15.78 0,0 -16.57,21.79 -36.12,22.35l2.6 -6.56z"/>
   <path class="fil1" d="M227 177.78c0,0 21.41,-20.11 30.72,-16.57 0,0 -15.45,22.34 -31.65,21.04l0.93 -4.47z"/>
   <path class="fil2" d="M235.56 155.81c0,0 18.43,-24.01 28.48,-22.15 0,0 -11.17,21.41 -28.48,24.6l0 -2.45z"/>
   <path class="fil2" d="M244.85 126.21c0,0 16.3,-18.42 25.09,-18.37 0,0 -12.86,24.6 -25.76,24.37l0.67 -6z"/>
   <path class="fil1" d="M250.36 106.47l15.73 -38.35c0,0 0.79,34.67 -17.74,45.47l2.01 -7.11z"/>
   <path class="fil1" d="M256.75 64.18c0,0 2.61,-32.02 0.93,-34.63 0,0 11.26,26.59 -1.04,48.78l0.11 -14.15z"/>
   <path class="fil1" d="M203.12 397.3c0,0 -16.32,-10.11 -26.88,14.63 0,0 14.52,9.64 28.8,-8.32l-1.92 -6.31z"/>
   <path class="fil1" d="M195.94 369.7c0,0 -20.01,-9.13 -29.73,16.7 0,0 15.47,10.64 31.55,-10.17l-1.82 -6.53z"/>
   <path class="fil1" d="M192.92 346.57c0,0 -14.33,-16.76 -35.9,0 0,0 13.59,14.71 35.9,4.28l0 -4.28z"/>
   <path class="fil1" d="M191.13 320.09c0,0 -14.53,-17.51 -35.19,-0.93 0,0 16.38,15.45 35.19,5.03l0 -4.1z"/>
   <path class="fil1" d="M192.92 298.57c0,0 -10.19,-25.23 -32.33,-14.38 0,0 11.97,22.38 31.43,18.57l0.9 -4.19z"/>
   <path class="fil1" d="M197.74 271.93c0,0 -10.12,-25.67 -32.58,-13.77 0,0 13.75,23.53 31.58,17.74l1 -3.97z"/>
   <path class="fil1" d="M204.02 249.06c0,0 -3.99,-28.15 -22.57,-30.67 0,0 3.94,29.68 20.09,35.74l2.48 -5.07z"/>
   <path class="fil1" d="M209.04 227.05c0,0 -1.56,-33.91 -16.95,-35.09 0,0 0.52,25.73 15.22,39.89l1.74 -4.81z"/>
   <path class="fil1" d="M219.84 200.59c0,0 -4.59,-28.19 -19.28,-31.64 0,0 1.82,27.31 17.83,38.56l1.46 -6.92z"/>
   <path class="fil1" d="M228.74 177.98c0,0 -0.16,-29.37 -9.14,-33.69 0,0 -5.56,26.6 6.54,37.44l2.6 -3.75z"/>
   <path class="fil1" d="M236.25 155.46c0,0 -1.26,-30.25 -10.55,-34.51 0,0 -3.18,23.94 9.16,36.49l1.4 -1.97z"/>
   <path class="fil1" d="M246.15 128.6c0,0 -0.06,-24.6 -6.7,-30.37 0,0 -6.6,26.95 3.23,35.32l3.46 -4.95z"/>
   <path class="fil1" d="M249.58 105.26l-6.45 -40.95c0,0 -8.78,33.56 6.76,48.34l-0.31 -7.39z"/>
   <path class="fil1" d="M250.84 64.56c0,0 -16.57,-27.52 -16.23,-30.58 0,0 1.75,28.86 22.61,43.22l-6.38 -12.63z"/>
   <path class="fil1" d="M252.78 56.44c0,0 -15.64,-39.1 -22.71,-42.27 0,0 22.34,11.36 24.01,41.15l-1.3 1.12z"/>
   <path class="fil3" d="M244.1 132.43l-1.07 -0.33c13.2,-43.04 16.5,-70.48 9.27,-77.35l0.77 -0.81c7.65,7.25 4.55,34.37 -8.98,78.49z"/>
   <path class="fil3" d="M207.76 233.17l-1.58 -0.56c1.4,-3.94 2.91,-7.94 4.49,-11.9 13.78,-34.33 25.5,-66.27 33.02,-90.79l1.38 -0.66c-7.53,24.57 -19.05,57.73 -32.85,92.1 -1.58,3.91 -3.08,7.9 -4.47,11.8z"/>
   <path class="fil3" d="M241.06 470.08c-0.21,-0.24 -21.61,-24.32 -36.51,-65.45 -8.72,-24.04 -13.63,-49.42 -14.43,-74.98 -1.02,-32 5.69,-67.73 17.19,-100.18l1.25 1.46c-25.82,72.84 -15.56,135.27 -1.96,172.87 14.76,40.75 35.9,64.58 36.12,64.81l-1.66 1.47z"/>
   <path class="fil4" d="M428.91 192.7l2.84 0c0.84,0 1.52,0.68 1.52,1.52l0 45.5c0,0.84 -0.68,1.52 -1.52,1.52l-2.84 0c-0.84,0 -1.52,-0.68 -1.52,-1.52l0 -45.5c0,-0.84 0.68,-1.52 1.52,-1.52z"/>
   <path class="fil4" d="M233.15 154.66l0.26 0c0.84,-0 1.52,0.68 1.52,1.52l0 12.94c0,0.84 -0.68,1.52 -1.52,1.52l-0.26 0c-0.84,0 -1.52,-0.68 -1.52,-1.52l0 -12.94c0,-0.84 0.68,-1.52 1.52,-1.52z"/>
   <path class="fil4" d="M233.03 183.93l0.68 0c0.84,0 1.52,0.68 1.52,1.52l-0 24.77c0,0.84 -0.68,1.52 -1.52,1.52l-0.68 0c-0.84,0 -1.52,-0.68 -1.52,-1.52l-0 -24.77c0,-0.84 0.68,-1.52 1.52,-1.52z"/>
   <path class="fil4" d="M233.09 221.48l0.5 0c0.84,0 1.52,0.68 1.52,1.52l0 25.01c0,0.84 -0.68,1.52 -1.52,1.52l-0.5 0c-0.84,0 -1.52,-0.68 -1.52,-1.52l0 -25.01c0,-0.84 0.68,-1.52 1.52,-1.52z"/>
   <path class="fil4" d="M259.42 101.84l145.22 0c14.32,0 25.92,11.61 25.92,25.92l0 348.67c0,14.32 -11.61,25.92 -25.92,25.92l-145.22 0c-14.31,-0 -25.92,-11.61 -25.92,-25.92l0 -348.67c0,-14.31 11.61,-25.92 25.92,-25.92z"/>
   <path class="fil1" d="M402.76 112.25l-22.6 0 0 2.72c-0,0 -0,0 -0,0 0,7.11 -5.77,12.89 -12.89,12.89 -0,0 -0,0 -0.01,0l-71.89 0c-0,0 -0.01,0 -0.01,0 -7.11,0 -12.89,-5.77 -12.89,-12.89 0,0 0,0 0,0l0 -2.72 -21.16 0c-8.64,0 -15.65,7.01 -15.65,15.65l0 348.38c0,8.64 7.01,15.65 15.65,15.65l141.44 0c8.64,-0 15.65,-7.01 15.65,-15.65l0 -348.35c0,-0.01 0,-0.02 0,-0.03 0,-8.64 -7.01,-15.65 -15.65,-15.65 0,0 0,0 0,0z"/>
   <path class="fil5" d="M315.59 113.8l22.37 0c1.42,0 2.57,1.15 2.57,2.57l0 0.44c0,1.42 -1.15,2.57 -2.57,2.57l-22.37 0c-1.42,0 -2.57,-1.15 -2.57,-2.57l-0 -0.44c0,-1.42 1.15,-2.57 2.57,-2.57z"/>
   <circle class="fil5" cx="347.87" cy="116.59" r="3.17"/>
   <path class="fil1" d="M498.79 84.27c0,0 -55.98,-3.38 -49.39,35.85 0,0 -1.33,6.94 4.97,10.08 0,0 0.1,-2.91 5.74,-1.92 1.42,0.23 2.86,0.35 4.3,0.35 0.6,0 1.2,-0.02 1.79,-0.06 2.74,-0.18 5.35,-1.25 7.43,-3.04l0 0c0,0 15.74,-6.5 21.86,-32.22 0,0 4.53,-5.61 4.35,-7.05l-9.45 4.04c0,0 3.23,6.81 0.67,12.48 0,0 -0.31,-12.23 -2.12,-11.97 -0.37,0.05 -4.91,2.36 -4.91,2.36 0,0 5.55,11.87 1.36,20.5 0,0 1.59,-14.63 -3.1,-19.64l-6.65 3.88c0,0 6.49,12.26 2.09,22.27 0,0 1.13,-15.35 -3.49,-21.32l-6.02 4.7c0,0 6.1,12.08 2.38,20.38 0,0 -0.49,-17.86 -3.68,-19.21 0,0 -5.27,4.65 -6.08,6.56 0,0 4.18,8.78 1.58,13.4 0,0 -1.59,-11.9 -2.89,-11.97 0,0 -5.25,7.89 -5.8,13.3 0,0 0.23,-8.04 4.53,-14.04 0,0 -5.08,0.87 -8.04,4.16 0,0 0.82,-5.57 9.34,-6.06 0,0 4.34,-5.98 5.5,-6.34 0,0 -8.47,-0.71 -13.61,1.57 0,0 4.52,-5.26 15.17,-2.87l5.95 -4.86c0,0 -11.16,-1.52 -15.89,0.16 0,0 5.45,-4.65 17.49,-1.26l6.48 -3.87c0,0 -9.51,-2.05 -15.18,-1.33 0,0 5.98,-3.23 17.08,0.27l4.65 -2.08c0,0 -6.97,-1.37 -9.01,-1.59 -2.04,-0.22 -2.15,-0.78 -2.15,-0.78 1.31,-0.22 2.64,-0.33 3.98,-0.33 3.12,0 6.23,0.61 9.12,1.78 2.89,1.18 9.83,-3.66 9.66,-4.28z"/>
   <path class="fil1" d="M441.37 66.83c0,0 -25.27,-1.52 -22.31,16.2 0,0 -0.59,3.13 2.25,4.55 0,0 0.05,-1.33 2.6,-0.87 0.64,0.11 1.29,0.16 1.93,0.16 0.27,0 0.54,-0.01 0.81,-0.03 1.24,-0.08 2.42,-0.57 3.36,-1.38l0 0c0,0 7.11,-2.94 9.88,-14.56 0,0 2.04,-2.53 1.96,-3.19l-4.27 1.82c0,0 1.46,3.08 0.31,5.64 0,0 -0.14,-5.52 -0.96,-5.4 -0.17,0 -2.22,1.07 -2.22,1.07 0,0 2.51,5.37 0.62,9.26 0,0 0.72,-6.61 -1.4,-8.88l-3 1.78c0,0 2.93,5.54 0.94,10.06 0,0 0.51,-6.93 -1.58,-9.63l-2.72 2.13c0,0 2.75,5.46 1.08,9.21 0,0 -0.23,-8.07 -1.67,-8.68 0,0 -2.38,2.1 -2.75,2.97 0,0 1.89,3.99 0.72,6.06 0,0 -0.72,-5.38 -1.33,-5.41 0,0 -2.37,3.56 -2.62,5.98 0.12,-2.26 0.83,-4.45 2.05,-6.34 -1.37,0.26 -2.63,0.91 -3.64,1.88 -1,0.97 0.37,-2.52 4.22,-2.74 0,0 2,-2.71 2.49,-2.87 0,0 -3.83,-0.32 -6.15,0.71 0,0 2.04,-2.37 6.85,-1.3l2.66 -2.19c0,0 -5.05,-0.67 -7.18,0.07 0,0 2.46,-2.1 7.91,-0.57l2.92 -1.75c0,0 -4.3,-0.92 -6.86,-0.59 0,0 2.71,-1.46 7.72,0.12l2.09 -0.94c0,0 -3.15,-0.62 -4.08,-0.72 -0.92,-0.1 -0.97,-0.35 -0.97,-0.35 0.59,-0.1 1.19,-0.15 1.79,-0.15 1.42,0 2.82,0.28 4.13,0.81 1.31,0.54 4.49,-1.67 4.42,-1.96z"/>
   <polygon class="fil6" points="263.23,442.42 400.83,442.42 400.83,150.38 263.23,150.38 "/>
   <path class="fil7" d="M396.61 523.95c0,0 -3.24,-7.55 -4.69,-11.04 -0.82,-2 -2.2,-2.33 -3.26,-2.28l0.06 -0.66 0.26 -3.15 0.05 -0.67c2.51,-0.52 4.65,-0.94 4.65,-0.94l-1.56 -80.66c0,0 -0.67,-0.85 -2.28,-5.98 -0.8,-2.56 -4.65,-5.71 -8.26,-8.21 -0.56,-0.39 -1.12,-0.76 -1.66,-1.12 1.31,-1.1 2.69,-2.12 4.13,-3.04 2.05,-1.19 2.73,-7.98 2.73,-7.98l-0.34 0.67c0.34,-0.67 0,-18 0,-18l-1.2 -17.99c0,0 -0.85,-21.39 -7.5,-26.99 -6.65,-5.6 -15.04,-7.57 -15.04,-7.57l-4.65 -1.2 0 0 -8.58 -2.2c-0.24,-0.39 -0.47,-0.8 -0.67,-1.24 -0.09,-0.17 -0.17,-0.34 -0.25,-0.51 5.32,-3.76 8.48,-9.87 8.48,-16.39 0,0 0,0 0,0 0,-0.01 0,-0.02 0,-0.03 0,-1.07 -0.09,-2.14 -0.26,-3.19 0,-0.2 -0.07,-0.4 -0.11,-0.6 0.7,-0.48 1.37,-1.02 1.99,-1.6 1.02,-0.81 1.85,-1.83 2.44,-2.99l0 0c0.09,-0.23 0.17,-0.46 0.23,-0.7 0,-0.07 0,-0.13 0.04,-0.21 0.04,-0.07 0.06,-0.35 0.08,-0.53 0,-0.07 0,-0.13 0,-0.2 0,-0.19 0,-0.39 0,-0.59 0,-0.05 0,-0.09 0,-0.15 0,-0.22 -0.03,-0.44 -0.07,-0.67 0,-0.01 0,-0.01 0,-0.02 0,-0.01 0,-0.01 -0,-0.02l0 0c-0.12,-0.77 -0.32,-1.53 -0.6,-2.26 -0.67,-1.71 -1.53,-3.32 -1.84,-5.15 -0.39,-2.16 0.06,-4.52 -0.97,-6.46 -0.87,-1.49 -2.35,-2.51 -4.05,-2.79 -0.48,-0.07 -0.97,-0.11 -1.45,-0.11 -1.21,0 -2.42,0.23 -3.55,0.68 -0.78,0.37 -1.61,0.59 -2.47,0.66 -0.62,-0.04 -1.23,-0.18 -1.8,-0.44 -1.97,-0.78 -3.85,-1.78 -5.58,-3 -1.25,-0.98 -2.59,-1.86 -3.99,-2.61 -0.77,-0.4 -1.63,-0.61 -2.5,-0.61 -0.72,0 -1.44,0.15 -2.1,0.43 -2.46,1.25 -2.93,4.73 -5.21,6.27 -1.58,1.06 -3.63,0.96 -5.53,1.02 -1.9,0.07 -4.06,0.54 -4.99,2.19 -0.67,1.14 -0.51,2.51 -0.38,3.84l0.04 0.45c0,0.16 0,0.33 0.04,0.48 0.01,0.25 0.02,0.5 0.02,0.75 0,1.46 -0.26,2.91 -0.77,4.28 -0.92,2.43 -2.66,4.83 -2.6,7.31l0 0c0.01,0.39 0.06,0.79 0.15,1.17 0.05,0.19 0.11,0.38 0.19,0.56l0 0c0.36,0.82 0.78,1.63 1.23,2.4l0.06 0.11c0.05,0.09 0.09,0.19 0.13,0.28 0.04,0.09 0.12,0.25 0.17,0.38 0.05,0.13 0.05,0.13 0.07,0.19 0.02,0.06 0.09,0.25 0.12,0.37 0.09,0.32 0.14,0.66 0.14,1 0,0.05 -0,0.11 -0,0.16 -0.08,0.5 -0.12,1.02 -0.13,1.52 0,0.53 0.38,0.98 0.89,1.09 0.27,-0.01 0.54,-0.09 0.77,-0.24 0.6,-0.34 1.17,-0.73 1.7,-1.16 0,0.21 0,0.43 0.04,0.67 0.46,4.76 2.61,9.2 6.04,12.52 0,0.21 0,0.42 -0.05,0.66 -0.05,0.25 -0.03,0.48 -0.05,0.72l0 0 -7.45 2.34c0,0 0.04,0.13 0.12,0.36l-0.79 0.31 0 0c-3.86,1.56 -8.16,3.5 -10.57,5.26 -1.06,0.77 -2.03,1.4 -2.91,1.93 -3.16,1.93 -5.59,4.87 -6.89,8.34l-0.1 0.25c-0.67,1.52 -3.92,11.88 -3.92,11.88 0,0 -2.39,5.77 -2.73,9.51 0,0 -3.92,12.39 -2.9,20.54 0,0 -3.07,11.72 -1.88,13.58 0,0 -1.22,5.04 4.15,10.11 -0.39,0.24 -0.82,0.5 -1.26,0.78 -4.16,2.62 -10.17,6.87 -11.19,10.15 -1.59,5.1 -2.27,5.98 -2.27,5.98l-1.61 80.54c0,0 2.15,0.41 4.65,0.93l0.05 0.66 0.26 3.14 0.06 0.67c-1.06,-0.05 -2.44,0.32 -3.26,2.29 -1.46,3.48 -4.65,11.02 -4.65,11.02 0,0 -7.16,6.65 -2.82,12.82 0.19,0.28 0.42,0.54 0.66,0.77 3.12,2.83 9.77,1.02 14.5,-0.83 2.4,-1.02 4.47,-2.7 5.98,-4.83 0.38,-0.5 0.96,-0.83 1.59,-0.88 1.08,-0.17 2.11,-0.62 2.97,-1.3 1.03,-0.75 1.64,-1.95 1.64,-3.22 0,-0.03 -0,-0.07 -0,-0.1 -0,-0.02 -0,-0.03 -0,-0.05 0,-0.02 0,-0.03 0,-0.05l-0.42 -9.46c0,0 -0.51,-6.61 -2.14,-6.18l-0.42 0.1 -0.11 -0.67 0 0 -0.22 -1.28 -0.11 -0.67 0.9 0c0,0 0.23,-7.47 2.96,-13.35 2.73,-5.88 4.53,-53.36 4.53,-53.36 0,0 33.82,0.55 34.95,-2.62l0 0c0.66,0 1.39,0 2.08,-0.05 1.14,3.17 33.06,3.32 33.06,3.32 0,0 1.81,47.53 4.54,53.42 0.58,1.26 1.06,2.57 1.43,3.9l0 0c0.85,3.07 1.37,6.25 1.53,9.44l0.9 0 -0.12 0.67 -0.22 1.28 -0.11 0.67 -0.43 -0.1c-1.62,-0.42 -2.13,6.19 -2.13,6.19l-0.43 9.52c-0,0.07 -0,0.14 -0,0.2 0,1.23 0.59,2.4 1.59,3.12 0.88,0.69 1.92,1.15 3.03,1.33 0.63,0.05 1.21,0.37 1.6,0.88 1.51,2.13 3.58,3.8 5.98,4.83 5.11,1.99 12.45,3.94 15.17,0.07 4.37,-6.18 -2.79,-12.81 -2.79,-12.81zm-85.97 -118.57l0 0 0.08 0 -0.08 0zm53.42 -27.18c0,0 0.86,3.23 2.39,4.92 1.53,1.69 0.77,12.23 0.77,12.23 -0.6,0.04 -1.2,0.13 -1.78,0.29 -1.18,-7 -2.26,-14.77 -1.38,-17.43z"/>
   <polygon class="fil8" points="290.53,510.91 277.16,512.24 276.78,507.77 276.52,504.69 276.16,500.19 288.79,500.85 289.8,506.63 290.01,507.89 290.01,507.89 "/>
   <polygon class="fil8" points="387.9,500.86 387.53,505.35 387.28,508.43 386.9,512.91 373.52,511.58 374.06,508.55 374.26,507.3 375.27,501.52 "/>
   <path class="fil9" d="M373.73 436.11l-39.76 1.87c-1.81,0.09 -3.62,0.09 -5.43,0l-37.98 -1.86 0 -30.09 83.17 0 0 30.09z"/>
   <path class="fil6" d="M373.73 436.11l-39.76 1.87c-1.81,0.09 -3.62,0.09 -5.43,0l-37.98 -1.86 0 -30.09 83.17 0 0 30.09z"/>
   <path class="fil10" d="M322.81 324.95c0,0 -13.25,4.45 -18.23,8.1 -1.04,0.76 -1.99,1.38 -2.83,1.9 -3.08,1.9 -5.44,4.77 -6.69,8.16 -0.03,0.09 -0.07,0.17 -0.1,0.25 -0.66,1.5 -3.82,11.63 -3.82,11.63 0,0 -2.33,5.65 -2.66,9.31 -0.33,3.66 18.95,13.46 18.95,13.46 0,0 -9.31,20.28 -5.15,25.43 4.15,5.15 64.83,7.65 63.5,0 -1.33,-7.65 -3.66,-20.28 -2.49,-23.77l20.61 -14.96c0,0 -0.83,-20.94 -7.31,-26.43 -6.48,-5.48 -14.63,-7.48 -14.63,-7.48l-12.9 -3.32c0,0 -4.55,11.3 -9.53,12.8 -4.99,1.5 -15.91,-5.41 -16.69,-15.09z"/>
   <path class="fil6" d="M341.42 343.98c0,0 -5.63,4.69 -8.58,0 0,0 -2.66,7.94 0,10.6l-0.1 0.54 -0.47 2.37 -6.16 51.2 5.07 8.74 9.22 -11.57 -0.74 -47.87 -0.33 -2.75 -0.08 -0.67 1.58 0c0,0 4.18,-7.23 0.6,-10.59z"/>
   <path class="fil6" d="M342.75 343.98c0,0 -5.62,4.69 -8.58,0 0,0 -2.66,7.94 0,10.6l-0.1 0.54 -0.47 2.37 -6.16 51.2 5.07 8.74 9.22 -11.57 -0.74 -47.87 -0.33 -2.75 -0.08 -0.67 1.58 0c0,0 4.18,-7.23 0.6,-10.59z"/>
   <polygon class="fil11" points="341.07,405.2 331.84,416.75 326.76,408.05 332.93,356.83 333.4,354.46 333.5,353.91 334.34,351.76 339.91,353.91 339.99,354.58 340.32,357.33 "/>
   <path class="fil6" d="M289.8 506.62c-2.87,-0.02 -5.74,-0.31 -8.55,-0.87 -1.39,-0.35 -3.13,-0.73 -4.72,-1.07l-0.37 -4.5 12.63 0.66 1 5.78z"/>
   <path class="fil9" d="M331.94 438.03c-1.1,3.11 -34.07,2.56 -34.07,2.56 0,0 -1.77,46.54 -4.43,52.31 -2.66,5.76 -2.89,13.07 -2.89,13.07 0,0 -5.76,0 -9.31,-0.88 -3.55,-0.88 -9.31,-2 -9.31,-2l1.56 -78.95c0,0 0.67,-0.83 2.21,-5.82 1,-3.21 6.85,-7.37 10.9,-9.97 2.26,-1.42 3.95,-2.35 3.95,-2.35l19.67 0.8 12.14 0.49c0,0 10.68,27.65 9.57,30.76z"/>
   <path class="fil6" d="M290.53 510.91l-13.38 1.33 -0.38 -4.47c0.5,0.01 0.99,0.12 1.46,0.32 2.44,1.75 9.42,0.36 11.78,-0.2l0 0 0.52 3.03z"/>
   <path class="fil11" d="M293.06 523.84c0,0.03 0,0.07 0,0.1 0,1.25 -0.6,2.42 -1.6,3.15 -0.84,0.66 -1.84,1.1 -2.89,1.27 -0.62,0.05 -1.18,0.37 -1.55,0.86 -1.48,2.09 -3.51,3.72 -5.85,4.73 -4.61,1.81 -11.09,3.58 -14.13,0.81 -0.25,-0.22 -0.47,-0.48 -0.66,-0.75 -4.23,-6.06 2.75,-12.55 2.75,-12.55 0,0 3.15,-7.39 4.57,-10.8 0.46,-1.34 1.73,-2.24 3.14,-2.24 0.49,0 0.98,0.11 1.43,0.32 2.66,1.92 10.72,0.08 12.3,-0.33 1.58,-0.41 2.08,6.06 2.08,6.06l0.43 9.26c-0,0.02 -0,0.03 -0,0.05 0,0.02 0,0.03 0,0.05l0 0z"/>
   <path class="fil6" d="M387.9 500.85l-0.37 4.49c-1.59,0.34 -3.32,0.72 -4.73,1.07 -2.8,0.56 -5.67,0.86 -8.54,0.88l1 -5.78 12.63 -0.67z"/>
   <path class="fil9" d="M392.13 503.76c0,0 -5.76,1.11 -9.31,2 -3.55,0.88 -9.31,0.88 -9.31,0.88 0,0 -0.22,-7.31 -2.88,-13.07 -2.66,-5.76 -4.43,-52.31 -4.43,-52.31 0,0 -31.1,-0.18 -32.21,-3.28 -1.11,-3.11 13.56,-29.92 13.56,-29.92l8.94 -0.47 17.03 -0.9c0,0 3.32,1.81 6.81,4.25 3.48,2.44 7.27,5.54 8.05,8.05 1.55,4.99 2.21,5.82 2.21,5.82l1.55 78.95z"/>
   <path class="fil6" d="M387.28 508.43l-0.37 4.47 -13.38 -1.33 0.53 -3.03c2.36,0.57 9.31,1.96 11.77,0.2 0.46,-0.2 0.96,-0.31 1.46,-0.32l0 0z"/>
   <path class="fil11" d="M385.82 509.41c0.45,-0.21 0.94,-0.32 1.43,-0.32 1.42,0 2.68,0.9 3.14,2.24 1.41,3.4 4.57,10.8 4.57,10.8 0,0 6.98,6.48 2.75,12.55 -2.66,3.8 -9.81,1.9 -14.79,-0.06 -2.35,-1 -4.38,-2.64 -5.85,-4.73 -0.37,-0.5 -0.94,-0.81 -1.56,-0.86 -1.08,-0.19 -2.09,-0.65 -2.95,-1.33 -0.97,-0.72 -1.54,-1.85 -1.54,-3.06 0,-0.06 0,-0.12 0,-0.19l0.42 -9.31c0,0 0.5,-6.47 2.08,-6.06 1.58,0.41 9.64,2.25 12.3,0.33z"/>
   <path class="fil12" d="M351.46 330.56l-13.42 14.23 -0.37 0.4 -0.49 -0.29c-2.8,-1.66 -16.84,-10.13 -15.64,-12.68 0.67,-1.45 1.06,-4.47 1.26,-7.07 0,-0.31 0.04,-0.62 0.07,-0.92 0.13,-2.05 0.17,-3.65 0.17,-3.65 0,0 25.27,-4.32 24.27,0 -0.41,1.75 0.2,3.72 1.06,5.44 0.25,0.5 0.53,0.97 0.8,1.42 0.67,1.1 1.44,2.15 2.29,3.12l-0 0z"/>
   <path class="fil6" d="M348.36 326.02c-3.39,2.49 -7.49,3.84 -11.7,3.84 -5.16,0 -10.11,-2.02 -13.8,-5.63 0.13,-2.05 0.17,-3.65 0.17,-3.65 0,0 25.27,-4.32 24.27,0 -0.39,1.76 0.2,3.72 1.06,5.44z"/>
   <path class="fil12" d="M356.38 309.48c0,0.09 0,0.19 0,0.28 0,10.89 -8.83,19.73 -19.73,19.73 -10.28,0 -18.83,-7.89 -19.66,-18.13 -0.05,-0.62 -0.08,-1.25 -0.08,-1.88 0,-0.12 -0,-0.24 -0,-0.36 0,-10.89 8.83,-19.73 19.73,-19.73 10.89,0 19.73,8.83 19.73,19.73 0,0.12 -0,0.24 -0,0.36l0.02 0z"/>
   <path class="fil6" d="M356.14 306.32c-0.84,0.68 -1.9,1.06 -2.98,1.06 -0.24,0 -0.49,-0.02 -0.73,-0.06 -3.04,-0.66 -4.09,-5.32 -7.2,-5.64 -3.11,-0.32 -5.18,3.99 -8.33,3.9 -1.33,-0.03 -2.53,-0.9 -3.75,-1.51 -2.14,-1.06 -5.66,-1.7 -7.98,-0.9 -3.48,1.19 -4.65,4.41 -6.87,6.97 -0.38,0.43 -0.8,0.84 -1.24,1.2 -0.05,-0.62 -0.08,-1.25 -0.08,-1.87 -0,-0.06 -0,-0.12 -0,-0.18 0,-10.89 8.83,-19.73 19.73,-19.73 9.75,0 18.03,7.12 19.5,16.76l-0.06 0z"/>
   <path class="fil8" d="M333.15 303.42c1.22,0.6 2.39,1.48 3.75,1.51 3.15,0.08 5.2,-4.25 8.32,-3.91 3.12,0.34 4.15,4.95 7.21,5.64 2.05,0.47 3.99,-1.07 5.52,-2.5 0.99,-0.79 1.8,-1.79 2.37,-2.92 0.67,-1.65 0.32,-3.55 -0.3,-5.23 -0.62,-1.67 -1.49,-3.28 -1.8,-5.05 -0.37,-2.12 0.06,-4.43 -0.94,-6.33 -0.84,-1.45 -2.29,-2.46 -3.95,-2.73 -0.47,-0.07 -0.95,-0.11 -1.43,-0.11 -1.18,0 -2.35,0.23 -3.45,0.66 -0.75,0.36 -1.57,0.59 -2.4,0.67 -0.61,-0.04 -1.21,-0.19 -1.76,-0.43 -1.92,-0.75 -3.75,-1.75 -5.44,-2.93 -1.21,-0.96 -2.51,-1.82 -3.88,-2.55 -0.75,-0.39 -1.58,-0.6 -2.43,-0.6 -0.7,0 -1.4,0.14 -2.05,0.42 -2.39,1.22 -2.85,4.65 -5.08,6.14 -1.54,1.04 -3.54,0.93 -5.39,1 -1.85,0.07 -3.99,0.52 -4.87,2.13 -0.78,1.39 -0.39,3.1 -0.29,4.69 0.01,0.23 0.02,0.48 0.02,0.71 0,1.44 -0.26,2.86 -0.76,4.21 -1.03,2.75 -3.12,5.47 -2.38,8.31 0.48,1.87 2.16,3.42 2.06,5.32 -0.08,0.49 -0.12,0.99 -0.13,1.48 0,0.51 0.37,0.96 0.87,1.06 0.27,-0 0.53,-0.09 0.75,-0.24 1.1,-0.62 2.1,-1.42 2.93,-2.37 2.25,-2.57 3.41,-5.78 6.89,-6.97 2.35,-0.78 5.86,-0.15 8,0.91z"/>
   <path class="fil12" d="M356.02 419.49l-3.59 0.98 -8.29 2.28c-1.92,1.43 -4.08,2.51 -6.38,3.17 -5.07,1.28 -8.35,-1.51 -11.08,-5.83 -1.1,-1.73 -0.54,-3.11 0.89,-4.19 3.46,-2.61 12.01,-3.46 14.63,-3.12 0.29,0.02 0.59,0.04 0.89,0.04 1.43,0 2.84,-0.28 4.16,-0.82 1.13,-0.41 2.23,-0.93 3.27,-1.54l5.51 9.04z"/>
   <path class="fil6" d="M356.02 419.49l-3.59 0.98c-1.03,-3.11 -2.73,-7 -5.15,-8.5 1.13,-0.41 2.23,-0.93 3.26,-1.54l5.48 9.06z"/>
   <path class="fil6" d="M380.3 410.93c-1.49,1.2 -2.75,2.3 -2.75,2.3 0,0 -17.29,5.42 -20.61,12.23 0,0 -2.66,-13.3 -8.31,-13.46 0,0 6.08,-2.39 7.84,-4.43l17.04 -0.89c0,0 3.32,1.81 6.79,4.25z"/>
   <path class="fil10" d="M380.05 358.82l3.82 5.65 1.16 17.62c0,0 0.33,16.96 0,17.62l0.33 -0.66c0,0 -0.67,6.65 -2.66,7.81 -2,1.16 -6.48,5.05 -6.48,5.05 0,0 -17.29,5.42 -20.61,12.23 0,0 -2.66,-13.3 -8.31,-13.46 0,0 8.48,-3.32 8.31,-5.48 0,0 6.48,-5.82 6.98,-7.31 0.5,-1.5 3.74,-1.66 3.74,-1.66 0,0 0.75,-10.3 -0.75,-11.97 -1.5,-1.66 -2.33,-4.82 -2.33,-4.82l16.79 -20.61z"/>
   <path class="fil6" d="M337.77 425.89c-5.07,1.28 -8.35,-1.51 -11.08,-5.83 -1.1,-1.73 -0.55,-3.11 0.89,-4.2l0.52 0.21c0,0 9.14,3.96 9.67,9.82z"/>
   <path class="fil12" d="M335.67 431.21c-5.98,8.31 -17.12,-3.24 -17.95,-5.57 -0.3,-0.84 -1.44,-1.6 -2.75,-2.2 -1.66,-0.72 -3.39,-1.3 -5.15,-1.71l9.89 -8.06 1.9 0.76 5.83 2.33c0,0 14.21,6.14 8.23,14.45z"/>
   <path class="fil6" d="M321.6 414.43c-5.45,2.59 -6.62,6.32 -6.65,9.01 -1.66,-0.72 -3.39,-1.3 -5.15,-1.71l9.89 -8.06 1.91 0.76z"/>
   <path class="fil6" d="M312.89 428.79c0,0 -15.96,-12.63 -23.6,-18.12 -0.95,-0.68 -1.85,-1.45 -2.66,-2.3 2.26,-1.42 3.95,-2.35 3.95,-2.35l19.67 0.8c0.52,0.91 0.84,1.53 0.84,1.53l10.64 6.98c-12.82,4.16 -8.83,13.46 -8.83,13.46z"/>
   <path class="fil10" d="M291.62 362.47l-3.16 1.83c0,0 -3.82,12.13 -2.83,20.11 0,0 -2.99,11.47 -1.83,13.3 0,0 -1.5,6.15 6.15,11.64 7.65,5.49 23.6,18.12 23.6,18.12 0,0 -3.99,-9.31 8.81,-13.46l-10.64 -6.98c0,0 -3.57,-7.09 -6.98,-8.64 0,0 -2.66,-2.66 -1,-4.49 1.66,-1.83 2.99,-3.82 2.99,-5.65 0,-1.83 0.66,-10.47 0.66,-10.47l2 -9.31 -17.79 -5.98z"/>
   <path class="fil6" d="M339.99 354.57l-6.48 0c-0.04,-0.04 -0.07,-0.08 -0.11,-0.12l0.11 -0.55 0.83 -2.15 5.57 2.15 0.08 0.67z"/>
   <path class="fil11" d="M342.08 343.32c0,0 -5.63,4.69 -8.58,0 0,0 -2.66,7.94 0,10.6l7.98 0c0,0 4.18,-7.23 0.6,-10.6z"/>
   <path class="fil6" d="M349.69 327.9l8.38 2.16c0,0 -7.94,20.61 -9.69,20.61l-10.05 -4.82 11.36 -17.95z"/>
   <path class="fil6" d="M351.46 330.56l-13.42 14.23 -0.37 0.4 -0.49 -0.29 11.74 -17.9 0.28 0.47c0.66,1.09 1.42,2.13 2.26,3.08z"/>
   <path class="fil10" d="M349.02 327.23l8.38 2.16c0,0 -7.94,20.61 -9.69,20.61l-10.05 -4.82 11.36 -17.95z"/>
   <path class="fil6" d="M322.15 325.61l-7.26 2.29c0,0 7.15,21.61 9.14,22.77l12.97 -4.82 -14.85 -20.24z"/>
   <path class="fil6" d="M338.03 344.79l-0.37 0.4c0,0 -17.45,-10.14 -16.12,-12.97 0.67,-1.45 1.06,-4.47 1.26,-7.07l0 -0.41 15.23 20.04z"/>
   <path class="fil10" d="M322.81 324.95l-7.26 2.29c0,0 7.15,21.61 9.14,22.77l12.97 -4.82 -14.85 -20.24z"/>
   <path class="fil6" d="M305.52 360.24c0,0 4.37,0.78 4.29,5.32 -0.08,4.54 1.8,-5.87 1.8,-5.87l-6.1 0.55z"/>
   <path class="fil6" d="M306.52 374.21c0,0 -1.22,6.87 0,13.08 1.22,6.21 1.11,8.31 2.06,8.64 0.94,0.33 -2.06,-21.72 -2.06,-21.72z"/>
   <path class="fil6" d="M362.37 373.54c-1.2,0.15 -2.1,1.18 -2.1,2.39 0,0.24 0.04,0.48 0.11,0.72 0.56,2.78 2,-3.11 2,-3.11z"/>
   <path class="fil6" d="M286.35 396.81c0,0 14.25,-1.22 16.62,1.33 2.37,2.55 -16.62,-1.33 -16.62,-1.33z"/>
   <path class="fil6" d="M369.02 397.78c0,0 10.42,-1.28 12.86,0.49m-12.86 -0.49l0 0 0 0z"/>
   <path class="fil6" d="M373.23 399.47c0,0 6.2,0.22 7.65,1m-7.65 -1l0 0 0 0z"/>
   <path class="fil6" d="M374.45 401.7c0,0 5.65,-0.22 6.43,0.66m-6.43 -0.66l0 0 0 0z"/>
   <path class="fil6" d="M294.75 432.95c0,0 4.84,2.52 4.35,5.09 -0.49,2.57 -4.35,-5.09 -4.35,-5.09z"/>
   <path class="fil6" d="M290.56 434.17c0,0 7.39,9.58 6.38,12.74 -1,3.16 -6.38,-12.74 -6.38,-12.74z"/>
   <path class="fil6" d="M369.74 435.76c0,0 -3.66,3.01 -3.56,5.5m3.56 -5.5l0 0 0 0z"/>
   <path class="fil6" d="M285.3 495.11c0,0 0,2.83 5.23,6.98m-5.23 -6.98l0 0 0 0z"/>
   <path class="fil6" d="M377.66 488.47c0,0 -0.56,5.88 -5.65,8.92m5.65 -8.92l0 0 0 0z"/>
   <g>
    <path class="fil6" d="M314.89 288.98c0,-0.46 -0.08,-0.93 -0.12,-1.4 -0.03,0.37 -0.05,0.74 -0.05,1.11 0,0.64 0.05,1.29 0.14,1.93 0.03,-0.34 0.04,-0.68 0.04,-1.02 0,-0.21 -0.01,-0.42 -0.02,-0.63l0 0z"/>
    <path class="fil6" d="M313.83 307.55c0.1,-1.93 -1.58,-3.48 -2.06,-5.32 -0.02,-0.09 -0.04,-0.18 -0.05,-0.27 -0.07,0.33 -0.1,0.67 -0.1,1.02 0,0.42 0.05,0.84 0.16,1.25 0.39,1.52 1.58,2.83 1.95,4.3 0.03,-0.35 0.1,-0.66 0.11,-0.98z"/>
    <path class="fil6" d="M360.33 299.25c-0.57,1.13 -1.38,2.13 -2.37,2.92 -1.55,1.43 -3.47,2.96 -5.52,2.5 -3.05,-0.66 -4.1,-5.32 -7.21,-5.64 -3.11,-0.32 -5.18,3.99 -8.32,3.9 -1.33,-0.03 -2.53,-0.9 -3.75,-1.51 -2.14,-1.06 -5.66,-1.7 -7.98,-0.9 -3.48,1.19 -4.65,4.41 -6.89,6.97 -0.83,0.95 -1.82,1.76 -2.92,2.38 -0.22,0.15 -0.48,0.23 -0.75,0.23 -0.34,-0.05 -0.63,-0.28 -0.74,-0.6l0 0.05c-0.08,0.49 -0.12,0.99 -0.13,1.49 0.01,0.51 0.37,0.95 0.87,1.06 0.27,-0.01 0.53,-0.09 0.75,-0.23 1.1,-0.62 2.09,-1.43 2.92,-2.38 2.25,-2.56 3.41,-5.78 6.89,-6.97 2.35,-0.8 5.86,-0.15 7.98,0.9 1.22,0.6 2.39,1.48 3.75,1.51 3.15,0.08 5.2,-4.25 8.32,-3.9 3.12,0.35 4.16,4.95 7.21,5.64 2.05,0.47 3.99,-1.07 5.52,-2.5 0.99,-0.79 1.8,-1.79 2.37,-2.92 0.25,-0.64 0.38,-1.33 0.38,-2.02 0,-0.33 -0.03,-0.67 -0.09,-1 -0.06,0.35 -0.15,0.7 -0.29,1.02l0 0z"/>
   </g>
   <path class="fil6" d="M269.13 521.46c0,0 5.43,-1.67 7.69,1.5m-7.69 -1.5l0 0 0 0z"/>
   <path class="fil6" d="M394.97 522.13c0,0 -9,-0.53 -8.64,1.91m8.64 -1.91l0 0 0 0z"/>
   <path class="fil0" d="M592.47 514.18c0,-1.67 -8.02,-3.03 -17.91,-3.03 -9.89,0 -17.9,1.35 -17.9,3.03 0,1.67 8.02,3.03 17.9,3.03 9.89,0 17.91,-1.35 17.91,-3.03z"/>
   <path class="fil0" d="M78.47 539c0,-1.67 -8.02,-3.03 -17.91,-3.03 -9.89,0 -17.91,1.35 -17.91,3.03 0,1.67 8.02,3.03 17.91,3.03 9.89,0 17.91,-1.35 17.91,-3.03z"/>
   <path class="fil0" d="M147.73 555.23c0,-1.67 -8.02,-3.03 -17.9,-3.03 -9.89,0 -17.91,1.35 -17.91,3.03 0,1.67 8.02,3.03 17.91,3.03 9.89,0 17.9,-1.35 17.9,-3.03z"/>
   <ellipse class="fil1" cx="535.37" cy="546.6" rx="26.73" ry="4.52"/>
   <path class="fil1" d="M546.43 539.2c1.22,-0.99 2.11,-2.34 2.55,-3.85 0.33,-1.52 -0.32,-3.32 -1.78,-3.92 -1.63,-0.62 -3.38,0.51 -4.71,1.66 -1.32,1.14 -2.85,2.45 -4.58,2.21 1.46,-1.32 2.29,-3.2 2.29,-5.17 0,-0.46 -0.04,-0.91 -0.13,-1.35 -0.08,-0.49 -0.29,-0.95 -0.61,-1.33 -0.9,-0.97 -2.55,-0.56 -3.64,0.21 -3.46,2.43 -4.42,7.13 -4.44,11.35 -0.35,-1.52 -0.05,-3.11 -0.07,-4.65 -0.01,-1.54 -0.43,-3.32 -1.75,-4.14 -0.77,-0.41 -1.62,-0.63 -2.5,-0.63 -0.05,0 -0.11,0 -0.16,0 -1.55,-0.06 -3.28,0.1 -4.35,1.24 -1.33,1.41 -0.97,3.78 0.17,5.32 1.14,1.54 2.89,2.53 4.5,3.6 1.29,0.77 2.38,1.82 3.21,3.07 0.1,0.17 0.18,0.36 0.24,0.55l9.71 0c2.18,-1.11 4.22,-2.51 6.04,-4.16l-0 0z"/>
   <path class="fil1" d="M130.75 480.89c0,0 3.66,4.78 -1.68,11.97 -5.34,7.19 -9.74,13.3 -7.98,17.8 0,0 8.06,-13.4 14.63,-13.58 6.57,-0.19 2.25,-8.13 -4.97,-16.18z"/>
   <path class="fil6" d="M130.75 480.89c0.32,0.46 0.57,0.97 0.75,1.5 6.4,7.51 9.81,14.53 3.66,14.7 -5.72,0.17 -12.59,10.41 -14.24,12.99 0.05,0.2 0.12,0.39 0.19,0.59 0,0 8.06,-13.4 14.63,-13.58 6.57,-0.19 2.23,-8.15 -4.98,-16.2z"/>
   <path class="fil13" d="M137.54 486.98c0,1.68 -0.19,3.05 -0.42,3.05 -0.23,0 -0.42,-1.36 -0.42,-3.05 0,-1.68 0.23,-0.89 0.47,-0.89 0.23,0 0.37,-0.79 0.37,0.89z"/>
   <path class="fil13" d="M139.87 488.98c-1.48,0.8 -2.77,1.29 -2.87,1.08 -0.11,-0.21 0.99,-1.02 2.47,-1.83 1.48,-0.8 0.9,-0.22 1,0 0.11,0.22 0.88,-0.06 -0.6,0.74z"/>
   <path class="fil1" d="M111.46 480.89c0,0 -3.66,4.78 1.68,11.97 5.34,7.19 9.74,13.3 7.98,17.8 0,0 -8.05,-13.4 -14.63,-13.58 -6.58,-0.19 -2.26,-8.13 4.97,-16.18z"/>
   <path class="fil6" d="M111.46 480.89c-0.32,0.46 -0.57,0.97 -0.75,1.5 -6.4,7.51 -9.8,14.53 -3.66,14.7 5.73,0.17 12.6,10.41 14.25,12.99 -0.05,0.2 -0.12,0.4 -0.2,0.59 -0.08,0.19 -8.05,-13.4 -14.63,-13.58 -6.58,-0.19 -2.24,-8.15 4.99,-16.2z"/>
   <path class="fil13" d="M104.67 486.98c0,1.68 0.19,3.05 0.43,3.05 0.23,0 0.42,-1.36 0.42,-3.05 0,-1.68 -0.23,-0.89 -0.47,-0.89 -0.23,0 -0.38,-0.79 -0.38,0.89z"/>
   <path class="fil13" d="M102.34 488.98c1.47,0.8 2.76,1.29 2.87,1.08 0.11,-0.21 -1,-1.02 -2.47,-1.83 -1.48,-0.8 -0.89,-0.22 -1,0 -0.11,0.22 -0.87,-0.06 0.61,0.74z"/>
   <path class="fil14" d="M105.83 510.05c0,0 10.21,-0.32 13.3,-2.51 3.08,-2.19 15.71,-4.81 16.47,-1.3 0.76,3.52 15.35,17.48 3.82,17.57 -11.53,0.09 -26.79,-1.8 -29.87,-3.66 -3.07,-1.87 -3.72,-10.11 -3.72,-10.11z"/>
   <path class="fil15" d="M139.62 522.59c-11.53,0.09 -26.79,-1.8 -29.87,-3.66 -2.33,-1.43 -3.27,-6.54 -3.58,-8.9l-0.34 0c0,0 0.66,8.23 3.72,10.11 3.05,1.88 18.34,3.76 29.87,3.66 3.32,0 4.47,-1.21 4.41,-2.97 -0.47,1.08 -1.73,1.74 -4.21,1.76z"/>
  </g>
  <g style="clip-path:url(#id0)">
   <image x="349.36" y="368.88" width="10.07" height="11.54" xlink:href="imagen_Images\imagen_ImgID1.png"/>
  </g>
 </g>
</svg>
