<?xml version="1.0" encoding="UTF-8"?>
<!DOCTYPE svg PUBLIC "-//W3C//DTD SVG 1.1//EN" "http://www.w3.org/Graphics/SVG/1.1/DTD/svg11.dtd">
<!-- Creator: CorelDRAW 2019 -->
<svg xmlns="http://www.w3.org/2000/svg" xml:space="preserve" width="8.3698mm" height="8.3698mm" version="1.1" style="shape-rendering:geometricPrecision; text-rendering:geometricPrecision; image-rendering:optimizeQuality; fill-rule:evenodd; clip-rule:evenodd"
viewBox="0 0 18.81 18.81"
 xmlns:xlink="http://www.w3.org/1999/xlink"
 data-name="Layer 1">
 <defs>
  <style type="text/css">
   <![CDATA[
    .fil2 {fill:#333333}
    .fil1 {fill:#89BD29}
    .fil0 {fill:whitesmoke}
    .fil4 {fill:#FDB797}
    .fil3 {fill:black;fill-opacity:0.101961}
   ]]>
  </style>
 </defs>
 <g id="PowerClip_x0020_Contents">
  <metadata id="CorelCorpID_0Corel-Layer"/>
  <g id="_889876496">
   <g>
    <g>
     <image x="-0" y="0" width="18.81" height="18.81" xlink:href="user_Images\user_ImgID1.png"/>
    </g>
   </g>
   <circle class="fil0" cx="9.43" cy="9.35" r="9.21"/>
   <path class="fil1" d="M9.43 18.59c0,0 0.01,0 0.01,0 1.79,0 3.55,-0.53 5.05,-1.51 -0.34,-1.85 -1.63,-1.96 -1.63,-1.96l-7.12 0c0,0 -1.22,0.1 -1.6,1.81 1.54,1.09 3.39,1.67 5.27,1.67 0,0 0.01,0 0.02,0l0 0z"/>
   <circle class="fil2" cx="9.34" cy="9.15" r="4.44"/>
   <path class="fil3" d="M7.9 12.86l2.85 0 0 2.28c0,0 0,0 0,0 0,0.79 -0.64,1.42 -1.42,1.42l0 0c-0.79,0 -1.42,-0.64 -1.42,-1.42l0 -2.28 -0 0z"/>
   <path class="fil4" d="M7.99 12.75l2.67 0c0.05,0 0.09,0.04 0.09,0.09l0 2.19c0,0 0,0 0,0 0,0.79 -0.64,1.42 -1.42,1.42 -0,0 -0,0 -0,0l0 0c-0.79,0 -1.42,-0.64 -1.42,-1.42l0 -2.19c0,0 0,0 0,0 0,-0.05 0.04,-0.09 0.09,-0.09l0 0z"/>
   <path class="fil3" d="M7.91 13.93c0.46,0.17 0.95,0.26 1.43,0.26 0.48,0 0.96,-0.09 1.41,-0.25l0 -0.35 -2.85 -0 0 0.34z"/>
   <circle class="fil4" cx="9.34" cy="10.04" r="4.08"/>
   <path class="fil3" d="M6.43 6.33c0,0 1.72,3.49 6.57,1.46l-1.13 -1.77 -2 -0.72 -3.44 1.03z"/>
   <path class="fil2" d="M6.43 6.27c0,0 1.72,3.49 6.57,1.46l-1.13 -1.77 -2 -0.72 -3.44 1.03z"/>
   <path class="fil2" d="M6.41 6.04c0.12,-0.36 0.32,-0.69 0.58,-0.95 0.8,-0.79 2.12,-0.96 2.79,-1.87 0.16,0.25 0.04,0.64 -0.24,0.75 0.65,-0 1.4,-0.06 1.76,-0.59 0.06,0.15 0.1,0.31 0.1,0.48 0,0.29 -0.11,0.58 -0.3,0.8 0.57,0.03 1.19,0.42 1.22,0.99 0.02,0.38 -0.22,0.74 -0.53,0.96 -0.31,0.22 -0.69,0.32 -1.07,0.4 -1.09,0.24 -5.03,1.25 -4.32,-0.96z"/>
   <ellipse class="fil4" cx="5.25" cy="10.04" rx="0.38" ry="0.71"/>
   <ellipse class="fil4" cx="13.42" cy="10.04" rx="0.38" ry="0.71"/>
  </g>
 </g>
</svg>
